<svg xmlns="http://www.w3.org/2000/svg" viewBox="0 0 32 32">
  <path d="M16 1 L29 6 V16 C29 26 16 31 16 31 C16 31 3 26 3 16 V6 Z" fill="#1B2A4A"/>
  <path d="M16 5 L26 9 V16 C26 24 16 28 16 28 C16 28 6 24 6 16 V9 Z" fill="#FAFAF7"/>
  <g transform="translate(7, 6) scale(0.35)">
    <path d="M46 2c-2 3-7 6-12 7-1-2-3-4-6-5 0 0-1 4 1 8-3 1-6 3-8 6-1-2-2-5-1-8-4 2-7 6-8 10C7 16 4 12 4 12s-1 8 3 13c0 0-3 1-5 1 4 4 10 6 16 6 12 0 20-8 24-17 1-2 1-5 1-7 0-2-1-4-2-6l3-1V2z" fill="#1B2A4A"/>
  </g>
  <g transform="translate(8, 17)">
    <rect x="0" y="2" width="16" height="10" rx="1" fill="none" stroke="#1B2A4A" stroke-width="1.5"/>
    <polyline points="0,3 8,9 16,3" fill="none" stroke="#1B2A4A" stroke-width="1.5"/>
    <circle cx="13" cy="11" r="4" fill="#2d6a4f"/>
    <polyline points="11,11 12.5,12.5 15,9.5" fill="none" stroke="#fff" stroke-width="1.2"/>
  </g>
</svg>
